<?xml version="1.0" encoding="UTF-8" standalone="no"?>
<!-- Created with Inkscape (http://www.inkscape.org/) -->

<svg
   width="210mm"
   height="297mm"
   viewBox="0 0 210 297"
   version="1.1"
   id="svg741"
   inkscape:version="1.2.2 (732a01da63, 2022-12-09)"
   sodipodi:docname="poseidon.svg"
   xmlns:inkscape="http://www.inkscape.org/namespaces/inkscape"
   xmlns:sodipodi="http://sodipodi.sourceforge.net/DTD/sodipodi-0.dtd"
   xmlns="http://www.w3.org/2000/svg"
   xmlns:svg="http://www.w3.org/2000/svg">
  <sodipodi:namedview
     id="namedview743"
     pagecolor="#505050"
     bordercolor="#ffffff"
     borderopacity="1"
     inkscape:showpageshadow="0"
     inkscape:pageopacity="0"
     inkscape:pagecheckerboard="1"
     inkscape:deskcolor="#505050"
     inkscape:document-units="mm"
     showgrid="false"
     inkscape:zoom="0.5946522"
     inkscape:cx="281.67726"
     inkscape:cy="517.10899"
     inkscape:window-width="1920"
     inkscape:window-height="1112"
     inkscape:window-x="-8"
     inkscape:window-y="1342"
     inkscape:window-maximized="1"
     inkscape:current-layer="svg741" />
  <defs
     id="defs738" />
  <g
     inkscape:groupmode="layer"
     id="layer4"
     inkscape:label="fin">
    <path
       style="fill:#008000;stroke-width:0.264583"
       d="m 181.63063,158.96778 c -1.7752,-60.754945 -33.13845,-97.229786 -33.13845,-97.229786 0,0 12.52971,68.723796 33.13845,97.229786 z"
       id="path1470-2" />
    <path
       style="fill:#008000;stroke-width:0.264583"
       d="m 180.19987,158.84285 c 36.03997,-48.94318 33.81528,-96.996475 33.81528,-96.996475 0,0 -32.48047,61.846375 -33.81528,96.996475 z"
       id="path1470" />
    <path
       style="fill:#008000;stroke-width:0.264583"
       d="m 83.648335,199.77714 c -15.57283,75.63945 0.889875,89.87747 0.889875,89.87747 0,0 9.777669,3.77644 33.37035,6.22912 49.65331,-3.0997 62.54664,-19.60878 64.96094,-50.72292 4.89432,-78.30908 -2.22469,-94.32684 -2.22469,-94.32684 0,0 -41.82417,201.5569 -60.06663,56.06218 C 95.812637,9.3758225 83.648335,199.77714 83.648335,199.77714 Z"
       id="path1468"
       sodipodi:nodetypes="cccccsc" />
  </g>
  <g
     inkscape:label="top_body"
     inkscape:groupmode="layer"
     id="layer1">
    <path
       style="fill:#e9c6af;stroke-width:0.264583"
       d="m 137.97255,129.41594 c 0,0 43.75501,-7.63335 42.74188,-21.53234 -1.01311,-13.898992 -8.06257,-17.401802 -8.06257,-17.401802 0,0 15.83514,-18.41732 2.36779,-33.75868 -13.46733,-15.34135 1.307,0.93026 1.307,0.93026 0,0 4.52701,-29.34391 -12.28465,-37.22006 -16.81166,-7.876139 -6.78257,35.91789 -6.78257,35.91789 0,0 -11.71666,19.22812 0.73998,30.66921 12.45662,11.441102 1.62398,1.76177 1.62398,1.76177 0,0 -70.599601,22.152832 -21.65084,40.633752 z"
       id="path1281-8"
       inkscape:label="right_arm" />
    <path
       style="fill:#e9c6af;stroke-width:0.264583"
       d="m 85.428086,102.33573 c 0,0 -43.60392,-8.453823 -47.60836,4.89432 -4.004442,13.34814 1.334813,19.13233 1.334813,19.13233 0,0 -21.357021,11.56838 -14.238014,30.70072 7.119008,19.13233 -0.889876,-1.33482 -0.889876,-1.33482 0,0 -14.6829522,25.8064 -1.779752,39.15454 12.903202,13.34814 19.132332,-31.14565 19.132332,-31.14565 0,0 17.797518,-13.79308 10.233573,-28.92097 -7.563945,-15.12789 -0.889876,-2.22469 -0.889876,-2.22469 0,0 73.859694,4.44938 34.70516,-30.25578 z"
       id="path1281"
       inkscape:label="left_arm" />
    <path
       style="fill:#e9c6af;stroke-width:0.264583"
       d="m 69.41032,129.032 c 5.339254,32.03554 13.793075,28.0311 13.793075,28.0311 l 3.114567,38.26466 33.370348,0.88988 6.22913,-38.70961 c 0,0 10.67851,5.33926 12.01332,-30.70071 1.33482,-36.039979 -74.74957,-36.484916 -68.52044,2.22468 z"
       id="path1167"
       inkscape:label="main" />
    <path
       style="fill:#00ff00;stroke-width:0.264583"
       d="M 101.00091,194.88282 C 83.203395,174.86061 77.864141,182.8695 77.864141,182.8695 c 0,0 -5.339255,2.66962 -4.449379,8.00888 0.889876,5.33926 29.365888,16.89909 29.365898,28.47603 0,1.77976 -0.44493,-2.66963 -0.44493,-2.66963 0,0 14.0856,-14.92163 24.02665,-16.90764 6.86913,-1.37231 5.11774,-5.76315 5.06141,-14.4116 -0.0212,-3.25815 -5.4547,-14.05667 -10.40067,-7.39036 -10.23357,13.79308 -20.02221,16.90764 -20.02221,16.90764 z"
       id="path1412"
       sodipodi:nodetypes="ccsscsssc"
       inkscape:label="Bottom_transition" />
  </g>
  <g
     inkscape:groupmode="layer"
     id="layer3"
     inkscape:label="Fork">
    <path
       style="fill:#ffff00;stroke-width:0.264583"
       d="M 26.696278,32.035533 58.286872,13.348139 60.956499,1.3348139 42.269105,-29.365905 c 0,0 -45.3836707,-9.788634 -49.3881121,-16.017767 -4.0044419,-6.22913 4.8943174,14.682954 4.0044414,16.017767 C -4.0044414,-28.03109 41.379229,-33.815284 53.837493,-0.44493796 66.295753,32.925408 42.714042,-27.586154 42.714042,-27.586154 L 54.282429,4.4493796 13.348139,-7.563945 8.453821,-12.013325 2.6696278,-8.453821 c 0,0 -20.0222078,-12.013325 -8.0088832,-10.678511 12.0133247,1.334814 -32.9254076,-7.119007 -32.9254076,-7.119007 l 24.026649,17.797518 c 0,0 -2.22469,-8.453821 14.68295196,1.7797517 16.90764204,10.2335729 0,0.4449379 0,0.4449379 L 6.2291314,-0.44493796 12.013325,-1.7797518 51.612802,8.8987589 c 0,0 -11.500442,29.1382671 -62.291313,2.6696281 -3.233647,-1.6851503 -9.788634,-0.444938 -9.788634,-0.444938 l -12.9032,5.339255 c 0,0 46.273545,4.894317 60.066623,15.572829 z"
       id="path1307"
       sodipodi:nodetypes="ccccssscccccsccsccccsccc"
       inkscape:label="fork_head" />
    <path
       style="fill:#ffff00;stroke-width:0.264583"
       d="M 296.77362,49.83305 C 61.846375,2.6696278 60.511562,2.2246897 60.511562,2.2246897 L 57.396996,12.9032 294.54893,61.401438 Z"
       id="path1305"
       inkscape:label="fork_stick" />
  </g>
  <path
     style="fill:#ffff00;stroke-width:1.68166"
     d="m 366.37436,408.65371 c -24.08424,-5.23785 -43.04947,-16.21388 -60.4043,-34.9587 -25.32106,-27.34909 -35.2654,-66.62129 -26.02155,-102.7644 5.08543,-19.88385 13.89746,-35.08321 29.45124,-50.79878 23.5137,-23.75827 46.86715,-33.51901 79.90344,-33.39621 21.7507,0.0808 32.4199,2.56724 50.34922,11.73358 29.10306,14.8789 49.97055,41.03693 58.32977,73.11812 3.71022,14.23921 3.72877,39.45494 0.0395,53.81297 -3.71237,14.44827 -12.64162,32.22832 -22.1192,44.04405 -25.16476,31.37299 -70.66495,47.66136 -109.52819,39.20937 z"
     id="path999"
     transform="scale(0.26458333)" />
</svg>
